<svg viewBox="0 0 900 220" xmlns="http://www.w3.org/2000/svg" role="img">
<title>EchoRegent — Conversation Intelligence Middleware by Yudi Labs</title>
<rect width="900" height="220" fill="#08090e"/>
<line x1="0" y1="110" x2="900" y2="110" stroke="#0e1118" stroke-width="1"/>
<polyline points="30,110 50,80 70,130 90,65 110,145 130,85 150,120 170,100 190,110" fill="none" stroke="#00c9b1" stroke-width="1.5" opacity="0.5"/>
<polyline points="30,110 50,88 70,122 90,74 110,136 130,92 150,116 170,104 190,110" fill="none" stroke="#00c9b1" stroke-width="1" opacity="0.25"/>
<polyline points="710,110 730,80 750,130 770,65 790,145 810,85 830,120 850,100 870,110" fill="none" stroke="#00c9b1" stroke-width="1.5" opacity="0.5"/>
<polyline points="710,110 730,88 750,122 770,74 790,136 810,92 830,116 850,104 870,110" fill="none" stroke="#00c9b1" stroke-width="1" opacity="0.25"/>
<text x="450" y="108" fill="#e8eaf0" font-size="62" font-weight="700" text-anchor="middle" font-family="ui-monospace,SFMono-Regular,Menlo,monospace" letter-spacing="-1">EchoRegent</text>
<rect x="300" y="120" width="300" height="2" fill="#00c9b1" opacity="0.7"/>
<text x="450" y="152" fill="#00c9b1" font-size="13" text-anchor="middle" font-family="ui-monospace,SFMono-Regular,Menlo,monospace" letter-spacing="4">CONVERSATION INTELLIGENCE MIDDLEWARE</text>
<text x="450" y="186" fill="#3d4455" font-size="11" text-anchor="middle" font-family="ui-monospace,SFMono-Regular,Menlo,monospace" letter-spacing="2">BY YUDI LABS</text>
</svg>
